<svg width="362" height="65" viewBox="0 0 362 65" fill="none" xmlns="http://www.w3.org/2000/svg">
<path d="M77.05 50L90 14.5H94.5L107.4 50H103.7L99.9 39.35H84.55L80.75 50H77.05ZM85.7 36.05H98.75L92.25 17.55L85.7 36.05ZM109.094 50V23.5H112.094L112.244 30.65L111.794 30.25C111.994 28.7833 112.477 27.5 113.244 26.4C114.011 25.3 114.977 24.45 116.144 23.85C117.311 23.2167 118.611 22.9 120.044 22.9C122.211 22.9 124.011 23.6 125.444 25C126.877 26.3667 127.744 28.2667 128.044 30.7L127.344 30.6C127.577 29 128.061 27.6333 128.794 26.5C129.561 25.3333 130.544 24.45 131.744 23.85C132.944 23.2167 134.294 22.9 135.794 22.9C137.561 22.9 139.077 23.3167 140.344 24.15C141.611 24.95 142.577 26.1 143.244 27.6C143.911 29.1 144.244 30.9 144.244 33V50H140.944V34C140.944 31.3667 140.427 29.35 139.394 27.95C138.394 26.55 136.944 25.85 135.044 25.85C133.711 25.85 132.527 26.2 131.494 26.9C130.494 27.6 129.694 28.5833 129.094 29.85C128.527 31.1167 128.244 32.6 128.244 34.3V50H124.944V34.15C124.944 31.5833 124.477 29.5667 123.544 28.1C122.644 26.6 121.211 25.85 119.244 25.85C117.911 25.85 116.727 26.2 115.694 26.9C114.661 27.6 113.844 28.5667 113.244 29.8C112.677 31.0333 112.394 32.4833 112.394 34.15V50H109.094ZM161.115 50.6C159.115 50.6 157.365 50.1 155.865 49.1C154.365 48.0667 153.249 46.7333 152.515 45.1L152.365 50H149.465V14.5H152.765V28.15C153.432 26.7167 154.499 25.4833 155.965 24.45C157.432 23.4167 159.149 22.9 161.115 22.9C163.415 22.9 165.399 23.4667 167.065 24.6C168.765 25.7333 170.082 27.3333 171.015 29.4C171.949 31.4667 172.415 33.9167 172.415 36.75C172.415 39.5833 171.949 42.0333 171.015 44.1C170.082 46.1667 168.765 47.7667 167.065 48.9C165.399 50.0333 163.415 50.6 161.115 50.6ZM160.965 47.45C163.399 47.45 165.332 46.5 166.765 44.6C168.199 42.6667 168.915 40.05 168.915 36.75C168.915 33.45 168.199 30.85 166.765 28.95C165.332 27.0167 163.415 26.05 161.015 26.05C159.315 26.05 157.849 26.5 156.615 27.4C155.382 28.2667 154.432 29.5 153.765 31.1C153.099 32.7 152.765 34.5833 152.765 36.75C152.765 38.8833 153.099 40.7667 153.765 42.4C154.432 44 155.365 45.25 156.565 46.15C157.799 47.0167 159.265 47.45 160.965 47.45ZM175.823 50V23.5H179.123V50H175.823ZM175.723 19.1V14.65H179.223V19.1H175.723ZM192.143 50C189.976 50 188.376 49.5 187.343 48.5C186.31 47.4667 185.793 45.9 185.793 43.8V17.3H189.093V43.7C189.093 44.9333 189.36 45.8 189.893 46.3C190.46 46.8 191.31 47.05 192.443 47.05H195.943V50H192.143ZM181.643 26.45V23.5H195.943V26.45H181.643ZM199.045 50V23.5H202.345V50H199.045ZM198.945 19.1V14.65H202.445V19.1H198.945ZM217.533 50.6C215.133 50.6 213.033 50.0333 211.233 48.9C209.466 47.7667 208.099 46.1667 207.133 44.1C206.166 42 205.683 39.55 205.683 36.75C205.683 33.9167 206.166 31.4667 207.133 29.4C208.099 27.3333 209.466 25.7333 211.233 24.6C213.033 23.4667 215.133 22.9 217.533 22.9C219.933 22.9 222.016 23.4667 223.783 24.6C225.549 25.7333 226.916 27.3333 227.883 29.4C228.849 31.4667 229.333 33.9167 229.333 36.75C229.333 39.55 228.849 42 227.883 44.1C226.916 46.1667 225.549 47.7667 223.783 48.9C222.016 50.0333 219.933 50.6 217.533 50.6ZM217.533 47.45C220.133 47.45 222.166 46.5 223.633 44.6C225.133 42.6667 225.883 40.05 225.883 36.75C225.883 33.45 225.133 30.85 223.633 28.95C222.166 27.0167 220.133 26.05 217.533 26.05C214.933 26.05 212.883 27.0167 211.383 28.95C209.883 30.85 209.133 33.45 209.133 36.75C209.133 40.05 209.883 42.6667 211.383 44.6C212.883 46.5 214.933 47.45 217.533 47.45ZM241.466 50.6C238.833 50.6 236.716 49.7167 235.116 47.95C233.549 46.15 232.766 43.6833 232.766 40.55V23.5H236.066V39.55C236.066 42.2833 236.583 44.3167 237.616 45.65C238.683 46.9833 240.249 47.65 242.316 47.65C244.616 47.65 246.416 46.9 247.716 45.4C249.049 43.9 249.716 41.8667 249.716 39.3V23.5H253.016V50H249.916L249.866 43.2L250.366 43.45C249.933 45.7167 248.933 47.4833 247.366 48.75C245.833 49.9833 243.866 50.6 241.466 50.6ZM267.645 50.6C265.345 50.6 263.378 50.2333 261.745 49.5C260.145 48.7333 258.895 47.6833 257.995 46.35C257.095 45.0167 256.578 43.5167 256.445 41.85L259.895 41.6C260.095 43.3667 260.828 44.7833 262.095 45.85C263.395 46.9167 265.245 47.45 267.645 47.45C269.745 47.45 271.378 47.1 272.545 46.4C273.711 45.7 274.295 44.6167 274.295 43.15C274.295 42.35 274.111 41.6833 273.745 41.15C273.411 40.5833 272.711 40.1 271.645 39.7C270.578 39.2667 268.978 38.8667 266.845 38.5C264.345 38.0333 262.395 37.4833 260.995 36.85C259.595 36.1833 258.611 35.3667 258.045 34.4C257.478 33.4 257.195 32.2167 257.195 30.85C257.195 28.4833 258.045 26.5667 259.745 25.1C261.445 23.6333 263.811 22.9 266.845 22.9C268.911 22.9 270.661 23.2833 272.095 24.05C273.561 24.8167 274.711 25.8333 275.545 27.1C276.378 28.3333 276.928 29.7 277.195 31.2L273.745 31.5C273.545 30.4667 273.161 29.55 272.595 28.75C272.028 27.9167 271.261 27.2667 270.295 26.8C269.328 26.3 268.161 26.05 266.795 26.05C264.795 26.05 263.261 26.4833 262.195 27.35C261.161 28.1833 260.645 29.3 260.645 30.7C260.645 31.6667 260.861 32.4667 261.295 33.1C261.728 33.7 262.445 34.2 263.445 34.6C264.445 34.9667 265.828 35.3 267.595 35.6C270.228 36.0333 272.278 36.5833 273.745 37.25C275.245 37.8833 276.295 38.6833 276.895 39.65C277.495 40.5833 277.795 41.7333 277.795 43.1C277.795 44.7 277.361 46.0667 276.495 47.2C275.628 48.3 274.428 49.15 272.895 49.75C271.395 50.3167 269.645 50.6 267.645 50.6ZM289.572 50V36.2L277.222 14.5H285.622L293.372 28.8L301.072 14.5H309.472L297.172 36.2V50H289.572ZM318.55 50.6C315.816 50.6 313.433 50.0333 311.4 48.9C309.366 47.7333 307.783 46.1 306.65 44C305.516 41.9 304.95 39.4333 304.95 36.6C304.95 33.7667 305.516 31.3167 306.65 29.25C307.783 27.15 309.366 25.5167 311.4 24.35C313.433 23.1833 315.816 22.6 318.55 22.6C321.283 22.6 323.666 23.1833 325.7 24.35C327.733 25.5167 329.316 27.15 330.45 29.25C331.583 31.3167 332.15 33.7667 332.15 36.6C332.15 39.4333 331.583 41.9 330.45 44C329.316 46.1 327.733 47.7333 325.7 48.9C323.666 50.0333 321.283 50.6 318.55 50.6ZM318.55 44.85C320.416 44.85 321.866 44.1333 322.9 42.7C323.933 41.2333 324.45 39.2 324.45 36.6C324.45 34 323.933 31.9833 322.9 30.55C321.866 29.0833 320.416 28.35 318.55 28.35C316.683 28.35 315.233 29.0833 314.2 30.55C313.166 31.9833 312.65 34 312.65 36.6C312.65 39.2 313.166 41.2333 314.2 42.7C315.233 44.1333 316.683 44.85 318.55 44.85ZM343.12 50.6C340.353 50.6 338.186 49.7167 336.62 47.95C335.086 46.15 334.32 43.65 334.32 40.45V23.2H341.82V38.7C341.82 40.7667 342.136 42.2833 342.77 43.25C343.403 44.1833 344.403 44.65 345.77 44.65C347.303 44.65 348.486 44.1333 349.32 43.1C350.186 42.0333 350.62 40.45 350.62 38.35V23.2H358.12V50H351.27L351.07 42.3L352.02 42.5C351.62 45.1667 350.67 47.1833 349.17 48.55C347.67 49.9167 345.653 50.6 343.12 50.6Z" fill="white"/>
<g clip-path="url(#clip0_13_2)">
<path d="M45.4889 0H18.4955C8.28071 0 0 8.41215 0 18.7891V46.2109C0 56.5878 8.28071 65 18.4955 65H45.4889C55.7037 65 63.9844 56.5878 63.9844 46.2109V18.7891C63.9844 8.41215 55.7037 0 45.4889 0Z" fill="url(#paint0_linear_13_2)"/>
<path style="mix-blend-mode:overlay" d="M45.4889 0H18.4955C8.28071 0 0 8.41215 0 18.7891V46.2109C0 56.5878 8.28071 65 18.4955 65H45.4889C55.7037 65 63.9844 56.5878 63.9844 46.2109V18.7891C63.9844 8.41215 55.7037 0 45.4889 0Z" fill="url(#paint1_radial_13_2)"/>
<path fill-rule="evenodd" clip-rule="evenodd" d="M15.0212 22.6484C15.0212 20.6888 15.7875 18.8095 17.1515 17.4239C18.5155 16.0382 20.3655 15.2598 22.2945 15.2598H46.5385C46.9888 15.2598 47.4301 15.3871 47.8131 15.6276C48.1961 15.8681 48.5056 16.2121 48.707 16.6212C48.9083 17.0303 48.9936 17.4883 48.9532 17.9438C48.9127 18.3994 48.7482 18.8345 48.4781 19.2004L42.2958 27.5742L48.4781 35.948C48.7482 36.314 48.9127 36.7491 48.9532 37.2046C48.9936 37.6601 48.9083 38.1181 48.707 38.5272C48.5056 38.9363 48.1961 39.2804 47.8131 39.5208C47.4301 39.7613 46.9888 39.8887 46.5385 39.8887H22.2945C21.6515 39.8887 21.0348 40.1482 20.5801 40.61C20.1255 41.0719 19.8701 41.6984 19.8701 42.3516V49.7402C19.8701 50.3934 19.6146 51.0199 19.16 51.4818C18.7053 51.9436 18.0886 52.2031 17.4456 52.2031C16.8027 52.2031 16.186 51.9436 15.7313 51.4818C15.2767 51.0199 15.0212 50.3934 15.0212 49.7402V22.6484Z" fill="white"/>
</g>
<defs>
<linearGradient id="paint0_linear_13_2" x1="0" y1="0" x2="0.098327" y2="0.0783795" gradientUnits="userSpaceOnUse">
<stop stop-color="#3D7F7A"/>
<stop offset="1" stop-color="#176B87"/>
</linearGradient>
<radialGradient id="paint1_radial_13_2" cx="0" cy="0" r="1" gradientUnits="userSpaceOnUse" gradientTransform="translate(31.9922) rotate(90) scale(65 63.9844)">
<stop stop-color="white"/>
<stop offset="1" stop-color="white" stop-opacity="0"/>
</radialGradient>
<clipPath id="clip0_13_2">
<rect width="63.9844" height="65" fill="white"/>
</clipPath>
</defs>
</svg>
