<svg width="1200" height="1200" viewBox="0 0 512 512" fill="none" xmlns="http://www.w3.org/2000/svg" xmlns:xlink="http://www.w3.org/1999/xlink" class="h-full w-full" id="iconWithBackground"><rect id="r4" width="512" height="512" x="0" y="0" rx="148" fill="url(#linearGradient-iconWithBackground)" stroke="#000000" stroke-width="0" stroke-opacity="0%" paint-order="stroke"/><rect width="512" height="512" x="0" y="0" fill="url(#glare)" rx="148" style="mix-blend-mode: overlay;"/><defs><linearGradient id="linearGradient-iconWithBackground" gradientUnits="userSpaceOnUse" gradientTransform="rotate(39)" style="transform-origin: center center 0px;"><stop stop-color="#3d7f7a"/><stop offset="1" stop-color="#176B87"/></linearGradient><radialGradient id="glare" cx="0" cy="0" r="1" gradientUnits="userSpaceOnUse" gradientTransform="translate(256) rotate(90) scale(512)"><stop stop-color="white"/><stop offset="1" stop-color="white" stop-opacity="0"/></radialGradient><clipPath id="clip"><use xlink:href="#r4"/></clipPath></defs><svg xmlns="http://www.w3.org/2000/svg" width="388" height="388" viewBox="0 0 20 20" x="62" y="62"><path fill="#ffffff" fill-rule="evenodd" d="M3 6a3 3 0 0 1 3-3h10a1 1 0 0 1 .8 1.6L14.25 8l2.55 3.4A1 1 0 0 1 16 13H6a1 1 0 0 0-1 1v3a1 1 0 1 1-2 0V6Z" clip-rule="evenodd"/></svg></svg>